<svg width="1080" height="1080" viewBox="0 0 1080 1080" fill="none" xmlns="http://www.w3.org/2000/svg">
<rect width="1080" height="1080" fill="#343090"/>
<path d="M540.839 617.852C540.839 617.852 667.335 559.29 748.264 521.685C748.264 521.685 753.858 518.05 759.791 521.558C765.724 525.066 765.248 530.984 765.248 530.984V682.231C765.248 684.982 764.139 687.733 761.923 689.934C733.11 719.098 699.864 742.208 662.74 758.165C624.507 775.223 583.504 783.477 541.393 783.477C499.281 783.477 458.278 774.673 420.046 758.165C407.855 752.663 395.665 746.61 384.029 739.457C378.488 736.706 376.826 729.552 380.151 724.6C382.921 719.098 390.124 717.447 395.111 720.748C405.639 726.801 416.721 732.854 428.357 737.806C463.819 753.213 502.052 760.917 540.839 760.917C579.625 760.917 617.858 753.213 653.874 737.806C686.566 723.5 716.487 703.14 742.53 677.279V547.97L545.825 639.862C544.163 640.412 542.501 640.962 540.839 640.962C539.176 640.962 537.514 640.412 535.852 639.862L384.583 569.43C379.042 566.679 376.272 560.076 379.042 554.573C381.813 549.071 388.462 546.319 394.003 549.071L540.839 617.852Z" fill="white"/>
<path d="M945.942 430.667L544.99 242.24C542.225 240.587 538.354 240.587 535.589 242.24L134.083 430.667C130.212 432.32 128 436.176 128 440.584C128 444.992 130.212 448.848 134.083 450.501L270.131 514.412C275.661 517.167 282.297 514.412 285.063 508.903C287.828 503.393 285.063 496.782 279.532 494.027L164.5 440.033L540.013 264.829L914.972 440.584L795.516 496.782C789.986 499.536 787.774 506.148 789.986 511.657C791.645 515.514 796.069 517.718 799.94 517.718C801.6 517.718 803.259 517.167 804.918 516.616L945.942 450.501C949.814 448.848 952.026 444.992 952.026 440.584C952.026 436.176 949.814 432.32 945.942 430.667Z" fill="white"/>
<path d="M549.81 422.488C552.575 427.995 550.363 434.604 544.832 437.357L339.649 537.586V827.259C339.649 833.316 334.671 838.273 328.588 838.273C322.504 838.273 317.526 833.316 317.526 827.259V526.588C317.526 526.588 317.52 524.728 319.216 523.545C320.911 522.361 321.419 522.192 321.419 522.192L534.877 417.532C540.408 414.778 547.045 416.981 549.81 422.488Z" fill="white"/>
</svg>
