<svg width="1080" height="1080" viewBox="0 0 1080 1080" fill="none" xmlns="http://www.w3.org/2000/svg">
<rect width="1080" height="1080" fill="white"/>
<path d="M605.656 573.143C620.338 566.066 629.456 553.918 629.456 536.344V535.99C629.456 523.606 625.667 514.642 618.444 507.447C610.037 498.955 596.302 493.648 574.871 493.648H515.787V602.747H556.163V579.748H564.807L603.051 637.895H649.229L605.656 573.143ZM589.198 539.292C589.198 546.723 583.278 550.969 573.687 550.969H556.163V527.38H573.805C583.159 527.38 589.198 531.154 589.198 538.939V539.292Z" fill="#343090"/>
<path d="M915.403 491.053C886.986 491.053 863.542 507.211 853.951 530.211C852.885 520.775 849.333 513.462 843.176 507.447C834.651 498.955 821.034 493.648 799.603 493.648H740.519V590.481L699.551 492.822H659.412L621.759 582.46L635.376 602.747H780.895V579.748H789.539L804.813 602.747H850.635L830.27 573.143C838.558 569.133 844.952 563.589 849.096 556.394C849.688 575.266 858.687 591.778 872.777 602.747H956.844C971.763 591.306 980.999 573.732 980.999 553.918V553.564C981.236 518.652 952.7 491.053 915.403 491.053ZM666.753 573.025L679.185 540.236L691.499 573.025H666.753ZM813.93 539.292C813.93 546.723 808.01 550.969 798.419 550.969H781.013V527.38H798.656C808.01 527.38 814.048 531.154 814.048 538.939V539.292H813.93ZM940.505 554.271C940.505 568.425 930.795 581.163 915.403 581.163C899.892 581.163 889.946 568.307 889.946 553.918V553.564C889.946 539.41 899.655 526.672 915.048 526.672C930.559 526.672 940.505 539.528 940.505 553.918V554.271Z" fill="#343090"/>
<path d="M286.731 575.358C286.731 575.358 344.253 548.884 381.054 531.885C381.054 531.885 383.598 530.242 386.296 531.828C388.994 533.414 388.777 536.089 388.777 536.089V604.461C388.777 605.704 388.273 606.948 387.265 607.943C374.163 621.126 359.045 631.574 342.163 638.787C324.778 646.498 306.132 650.229 286.983 650.229C267.834 650.229 249.188 646.249 231.802 638.787C226.259 636.3 220.716 633.563 215.425 630.33C212.905 629.086 212.149 625.852 213.661 623.614C214.921 621.126 218.196 620.38 220.464 621.873C225.251 624.609 230.291 627.345 235.582 629.584C251.708 636.548 269.093 640.031 286.731 640.031C304.369 640.031 321.754 636.548 338.132 629.584C352.998 623.116 366.604 613.913 378.446 602.222V543.767L288.999 585.307C288.243 585.556 287.487 585.805 286.731 585.805C285.975 585.805 285.219 585.556 284.463 585.307L215.677 553.468C213.157 552.225 211.897 549.24 213.157 546.752C214.417 544.265 217.44 543.021 219.96 544.265L286.731 575.358Z" fill="#343090"/>
<path d="M470.945 490.74L288.619 405.56C287.361 404.813 285.601 404.813 284.344 405.56L101.766 490.74C100.006 491.487 99 493.23 99 495.223C99 497.215 100.006 498.959 101.766 499.706L163.631 528.597C166.146 529.843 169.164 528.597 170.421 526.107C171.679 523.616 170.421 520.627 167.907 519.382L115.598 494.974L286.356 415.772L456.862 495.223L402.541 520.627C400.026 521.873 399.02 524.861 400.026 527.352C400.781 529.095 402.793 530.092 404.553 530.092C405.307 530.092 406.062 529.843 406.816 529.594L470.945 499.706C472.705 498.959 473.711 497.215 473.711 495.223C473.711 493.23 472.705 491.487 470.945 490.74Z" fill="#343090"/>
<path d="M290.811 487.043C292.068 489.532 291.062 492.519 288.547 493.764L195.243 539.073V670.021C195.243 672.759 192.98 675 190.214 675C187.447 675 185.184 672.759 185.184 670.021V534.101C185.184 534.101 185.181 533.261 185.952 532.726C186.723 532.191 186.954 532.114 186.954 532.114L284.02 484.802C286.535 483.557 289.553 484.553 290.811 487.043Z" fill="#343090"/>
<path d="M672.579 632.448H661.611L659.34 637.658H656.304L665.65 616.818H668.569L677.945 637.658H674.849L672.579 632.448ZM671.547 630.066L667.095 619.855L662.643 630.066H671.547Z" fill="#343090"/>
<path d="M713.845 637.896C711.781 637.896 709.914 637.439 708.243 636.526C706.592 635.594 705.295 634.323 704.351 632.716C703.408 631.088 702.936 629.262 702.936 627.238C702.936 625.214 703.408 623.398 704.351 621.79C705.295 620.162 706.602 618.892 708.273 617.979C709.943 617.046 711.811 616.58 713.875 616.58C715.486 616.58 716.961 616.858 718.297 617.414C719.634 617.95 720.774 618.753 721.717 619.825L719.801 621.701C718.248 620.053 716.312 619.23 713.993 619.23C712.459 619.23 711.074 619.577 709.835 620.272C708.597 620.966 707.624 621.929 706.917 623.159C706.229 624.37 705.885 625.73 705.885 627.238C705.885 628.746 706.229 630.116 706.917 631.346C707.624 632.557 708.597 633.51 709.835 634.204C711.074 634.899 712.459 635.246 713.993 635.246C716.292 635.246 718.228 634.413 719.801 632.746L721.717 634.621C720.774 635.693 719.624 636.507 718.268 637.062C716.931 637.618 715.457 637.896 713.845 637.896Z" fill="#343090"/>
<path d="M762.465 632.448H751.497L749.227 637.658H746.19L755.536 616.818H758.455L767.831 637.658H764.735L762.465 632.448ZM761.433 630.066L756.981 619.855L752.529 630.066H761.433Z" fill="#343090"/>
<path d="M794.791 616.818H803.489C805.67 616.818 807.606 617.255 809.297 618.128C810.987 619.001 812.294 620.232 813.218 621.82C814.162 623.388 814.633 625.194 814.633 627.238C814.633 629.282 814.162 631.098 813.218 632.686C812.294 634.254 810.987 635.475 809.297 636.348C807.606 637.221 805.67 637.658 803.489 637.658H794.791V616.818ZM803.312 635.068C804.982 635.068 806.447 634.74 807.705 634.085C808.982 633.43 809.965 632.517 810.653 631.346C811.341 630.155 811.685 628.786 811.685 627.238C811.685 625.69 811.341 624.33 810.653 623.159C809.965 621.969 808.982 621.046 807.705 620.391C806.447 619.736 804.982 619.408 803.312 619.408H797.739V635.068H803.312Z" fill="#343090"/>
<path d="M858.008 635.068V637.658H843.031V616.818H857.596V619.408H845.979V625.809H856.328V628.339H845.979V635.068H858.008Z" fill="#343090"/>
<path d="M905.799 637.658L905.769 622.475L898.31 635.127H896.954L889.494 622.564V637.658H886.664V616.818H889.082L897.691 631.465L906.182 616.818H908.6L908.629 637.658H905.799Z" fill="#343090"/>
<path d="M946.606 630.453V637.658H943.687V630.394L935.491 616.818H938.646L945.25 627.804L951.884 616.818H954.802L946.606 630.453Z" fill="#343090"/>
</svg>
