<svg width="1080" height="1080" viewBox="0 0 1080 1080" fill="none" xmlns="http://www.w3.org/2000/svg">
<rect width="1080" height="1080" fill="white"/>
<path d="M338.305 724.721C359.103 714.651 372.018 697.364 372.018 672.356V671.852C372.018 654.229 366.65 641.474 356.419 631.236C344.51 619.151 325.054 611.599 294.696 611.599H211V766.848H268.195V734.12H280.439L334.615 816.864H400.028L338.305 724.721ZM314.991 676.552C314.991 687.126 306.604 693.168 293.018 693.168H268.195V659.6H293.186C306.437 659.6 314.991 664.971 314.991 676.048V676.552Z" fill="#343090"/>
<path d="M777.077 607.906C736.823 607.906 703.613 630.9 690.027 663.628C688.518 650.201 683.486 639.795 674.764 631.236C662.688 619.151 643.399 611.599 613.041 611.599H529.345V749.393L471.311 610.424H414.452L361.115 737.98L380.404 766.848H586.54V734.12H598.784L620.42 766.848H685.331L656.482 724.721C668.223 719.015 677.28 711.126 683.15 700.888C683.989 727.742 696.736 751.239 716.696 766.848H835.782C856.915 750.568 869.998 725.56 869.998 697.364V696.86C870.333 647.18 829.911 607.906 777.077 607.906ZM424.851 724.553L442.462 677.894L459.906 724.553H424.851ZM633.336 676.552C633.336 687.125 624.949 693.168 611.363 693.168H586.707V659.6H611.699C624.949 659.6 633.503 664.971 633.503 676.048V676.552H633.336ZM812.635 697.867C812.635 718.008 798.882 736.134 777.077 736.134C755.105 736.134 741.016 717.84 741.016 697.364V696.86C741.016 676.72 754.77 658.593 776.574 658.593C798.546 658.593 812.635 676.887 812.635 697.364V697.867Z" fill="#343090"/>
<path d="M541.392 462.63C541.392 462.63 607.802 431.763 650.29 411.943C650.29 411.943 653.227 410.027 656.341 411.876C659.456 413.725 659.206 416.844 659.206 416.844V496.563C659.206 498.013 658.624 499.463 657.461 500.623C642.334 515.994 624.88 528.176 605.39 536.586C585.318 545.577 563.791 549.927 541.683 549.927C519.574 549.927 498.048 545.287 477.976 536.586C471.576 533.686 465.176 530.496 459.067 526.725C456.158 525.275 455.285 521.505 457.031 518.895C458.485 515.995 462.267 515.124 464.885 516.865C470.412 520.055 476.23 523.245 482.339 525.855C500.957 533.976 521.029 538.036 541.392 538.036C561.755 538.036 581.827 533.976 600.735 525.855C617.898 518.315 633.607 507.584 647.279 493.953V425.797L544.01 474.231C543.137 474.521 542.264 474.811 541.392 474.811C540.519 474.811 539.646 474.521 538.774 474.231L459.358 437.108C456.449 435.658 454.995 432.178 456.449 429.277C457.904 426.377 461.394 424.927 464.303 426.377L541.392 462.63Z" fill="#343090"/>
<path d="M754.07 363.969L543.571 264.653C542.12 263.782 540.087 263.782 538.636 264.653L327.846 363.969C325.814 364.84 324.652 366.873 324.652 369.196C324.652 371.519 325.814 373.552 327.846 374.423L399.271 408.109C402.174 409.561 405.658 408.109 407.11 405.205C408.562 402.301 407.11 398.817 404.207 397.365L343.815 368.906L540.958 276.56L737.811 369.196L675.097 398.817C672.194 400.269 671.032 403.753 672.194 406.657C673.065 408.69 675.387 409.852 677.42 409.852C678.291 409.852 679.162 409.561 680.033 409.271L754.07 374.423C756.103 373.552 757.264 371.519 757.264 369.196C757.264 366.873 756.103 364.84 754.07 363.969Z" fill="#343090"/>
<path d="M546.102 359.658C547.553 362.561 546.392 366.044 543.489 367.495L435.767 420.324V573.004C435.767 576.197 433.154 578.809 429.96 578.809C426.767 578.809 424.153 576.197 424.153 573.004V414.527C424.153 414.527 424.15 413.547 425.04 412.923C425.93 412.299 426.197 412.21 426.197 412.21L538.262 357.046C541.166 355.595 544.65 356.756 546.102 359.658Z" fill="#343090"/>
<path d="M433.795 809.265H418.304L415.097 816.662H410.808L424.009 787.074H428.132L441.375 816.662H437.002L433.795 809.265ZM432.338 805.884L426.05 791.386L419.761 805.884H432.338Z" fill="#343090"/>
<path d="M492.082 817C489.167 817 486.53 816.352 484.17 815.056C481.838 813.731 480.006 811.928 478.673 809.645C477.34 807.335 476.674 804.742 476.674 801.868C476.674 798.994 477.34 796.416 478.673 794.133C480.006 791.823 481.852 790.019 484.212 788.723C486.571 787.399 489.209 786.736 492.124 786.736C494.4 786.736 496.483 787.131 498.37 787.92C500.258 788.681 501.869 789.822 503.201 791.344L500.494 794.006C498.301 791.668 495.566 790.498 492.29 790.498C490.125 790.498 488.168 790.991 486.419 791.977C484.67 792.964 483.295 794.33 482.296 796.077C481.324 797.796 480.838 799.727 480.838 801.868C480.838 804.01 481.324 805.954 482.296 807.701C483.295 809.42 484.67 810.773 486.419 811.759C488.168 812.745 490.125 813.238 492.29 813.238C495.539 813.238 498.273 812.055 500.494 809.688L503.201 812.351C501.869 813.872 500.244 815.028 498.329 815.817C496.441 816.606 494.359 817 492.082 817Z" fill="#343090"/>
<path d="M560.755 809.265H545.264L542.057 816.662H537.768L550.969 787.074H555.091L568.334 816.662H563.962L560.755 809.265ZM559.297 805.884L553.009 791.386L546.721 805.884H559.297Z" fill="#343090"/>
<path d="M606.414 787.074H618.699C621.781 787.074 624.515 787.694 626.903 788.934C629.29 790.174 631.137 791.921 632.441 794.175C633.774 796.402 634.44 798.966 634.44 801.868C634.44 804.771 633.774 807.349 632.441 809.603C631.137 811.829 629.29 813.562 626.903 814.802C624.515 816.042 621.781 816.662 618.699 816.662H606.414V787.074ZM618.449 812.985C620.809 812.985 622.877 812.52 624.654 811.59C626.459 810.66 627.847 809.364 628.818 807.701C629.79 806.01 630.276 804.066 630.276 801.868C630.276 799.67 629.79 797.74 628.818 796.077C627.847 794.387 626.459 793.076 624.654 792.147C622.877 791.217 620.809 790.752 618.449 790.752H610.578V812.985H618.449Z" fill="#343090"/>
<path d="M695.705 812.985V816.662H674.55V787.074H695.122V790.752H678.715V799.839H693.332V803.432H678.715V812.985H695.705Z" fill="#343090"/>
<path d="M763.206 816.662L763.165 795.105L752.629 813.069H750.713L740.177 795.232V816.662H736.18V787.074H739.594L751.754 807.87L763.748 787.074H767.163L767.204 816.662H763.206Z" fill="#343090"/>
<path d="M820.845 806.433V816.662H816.722V806.349L805.145 787.074H809.601L818.929 802.671L828.299 787.074H832.421L820.845 806.433Z" fill="#343090"/>
</svg>
