<svg width="1080" height="1080" viewBox="0 0 1080 1080" fill="none" xmlns="http://www.w3.org/2000/svg">
<rect width="1080" height="1080" fill="#343090"/>
<path d="M605.677 573.012C620.476 565.857 629.665 553.573 629.665 535.804V535.446C629.665 522.924 625.846 513.861 618.566 506.586C610.093 498 596.249 492.633 574.648 492.633H515.095V602.945H555.791V579.69H564.503L603.052 638.483H649.596L605.677 573.012ZM589.088 538.786C589.088 546.299 583.121 550.592 573.454 550.592H555.791V526.741H573.573C583.002 526.741 589.088 530.557 589.088 538.428V538.786Z" fill="white"/>
<path d="M917.882 490.01C889.239 490.01 865.609 506.348 855.942 529.603C854.868 520.062 851.288 512.668 845.082 506.586C836.489 498 822.764 492.633 801.163 492.633H741.61V590.543L700.317 491.799H659.859L621.908 582.433L635.632 602.945H782.307V579.69H791.019L806.414 602.945H852.601L832.073 573.012C840.427 568.957 846.872 563.352 851.049 556.078C851.646 575.158 860.716 591.854 874.918 602.945H959.652C974.69 591.377 983.999 573.608 983.999 553.573V553.215C984.237 517.916 955.475 490.01 917.882 490.01ZM667.259 572.893L679.79 539.739L692.202 572.893H667.259ZM815.604 538.785C815.604 546.299 809.637 550.592 799.97 550.592H782.426V526.741H800.208C809.636 526.741 815.723 530.557 815.723 538.428V538.785H815.604ZM943.183 553.931C943.183 568.242 933.397 581.121 917.882 581.121C902.248 581.121 892.223 568.122 892.223 553.573V553.215C892.223 538.905 902.009 526.025 917.524 526.025C933.158 526.025 943.183 539.024 943.183 553.573V553.931Z" fill="white"/>
<path d="M284.221 575.251C284.221 575.251 342.199 548.483 379.292 531.295C379.292 531.295 381.856 529.633 384.576 531.237C387.295 532.84 387.077 535.545 387.077 535.545V604.677C387.077 605.934 386.569 607.192 385.553 608.198C372.347 621.528 357.109 632.091 340.093 639.385C322.57 647.181 303.776 650.954 284.475 650.954C265.173 650.954 246.38 646.93 228.856 639.385C223.269 636.87 217.682 634.103 212.349 630.833C209.809 629.576 209.047 626.306 210.571 624.043C211.841 621.528 215.142 620.773 217.428 622.282C222.253 625.049 227.333 627.815 232.666 630.079C248.92 637.121 266.443 640.642 284.221 640.642C301.998 640.642 319.522 637.121 336.03 630.079C351.014 623.54 364.728 614.234 376.664 602.413V543.309L286.507 585.311C285.745 585.562 284.983 585.814 284.221 585.814C283.459 585.814 282.697 585.562 281.935 585.311L212.603 553.118C210.063 551.86 208.793 548.842 210.063 546.327C211.333 543.812 214.38 542.555 216.92 543.812L284.221 575.251Z" fill="white"/>
<path d="M469.897 489.692L286.124 403.567C284.856 402.811 283.082 402.811 281.815 403.567L97.7883 489.692C96.0139 490.448 95 492.211 95 494.225C95 496.24 96.0139 498.003 97.7883 498.758L160.144 527.971C162.679 529.23 165.721 527.971 166.988 525.452C168.256 522.934 166.988 519.912 164.454 518.653L111.73 493.974L283.843 413.892L455.702 494.225L400.95 519.912C398.415 521.171 397.401 524.193 398.415 526.711C399.176 528.474 401.204 529.482 402.978 529.482C403.738 529.482 404.499 529.23 405.259 528.978L469.897 498.758C471.671 498.003 472.685 496.24 472.685 494.225C472.685 492.211 471.671 490.448 469.897 489.692Z" fill="white"/>
<path d="M288.333 485.954C289.6 488.471 288.586 491.492 286.051 492.751L192.007 538.563V670.966C192.007 673.735 189.726 676 186.938 676C184.149 676 181.868 673.735 181.868 670.966V533.536C181.868 533.536 181.865 532.686 182.642 532.145C183.419 531.604 183.652 531.527 183.652 531.527L281.489 483.689C284.023 482.43 287.065 483.437 288.333 485.954Z" fill="white"/>
<path d="M673.131 632.974H662.076L659.787 638.242H656.727L666.147 617.17H669.089L678.539 638.242H675.419L673.131 632.974ZM672.09 630.566L667.603 620.241L663.116 630.566H672.09Z" fill="white"/>
<path d="M714.725 638.482C712.644 638.482 710.762 638.021 709.078 637.098C707.414 636.154 706.107 634.87 705.156 633.245C704.205 631.599 703.729 629.753 703.729 627.706C703.729 625.659 704.205 623.823 705.156 622.197C706.107 620.552 707.424 619.268 709.108 618.344C710.792 617.401 712.674 616.93 714.754 616.93C716.379 616.93 717.865 617.211 719.212 617.773C720.559 618.314 721.708 619.127 722.659 620.211L720.728 622.107C719.162 620.442 717.211 619.609 714.873 619.609C713.328 619.609 711.931 619.96 710.683 620.662C709.435 621.365 708.454 622.338 707.741 623.582C707.048 624.806 706.701 626.181 706.701 627.706C706.701 629.231 707.048 630.616 707.741 631.86C708.454 633.084 709.435 634.047 710.683 634.75C711.931 635.452 713.328 635.803 714.873 635.803C717.191 635.803 719.143 634.96 720.728 633.275L722.659 635.171C721.708 636.255 720.549 637.078 719.182 637.639C717.835 638.201 716.349 638.482 714.725 638.482Z" fill="white"/>
<path d="M763.73 632.974H752.675L750.387 638.242H747.326L756.747 617.17H759.689L769.139 638.242H766.018L763.73 632.974ZM762.69 630.566L758.203 620.241L753.715 630.566H762.69Z" fill="white"/>
<path d="M796.313 617.17H805.08C807.279 617.17 809.23 617.612 810.934 618.495C812.638 619.378 813.955 620.622 814.886 622.228C815.837 623.813 816.313 625.639 816.313 627.706C816.313 629.773 815.837 631.609 814.886 633.215C813.955 634.8 812.638 636.034 810.934 636.917C809.23 637.8 807.279 638.242 805.08 638.242H796.313V617.17ZM804.901 635.623C806.585 635.623 808.061 635.292 809.329 634.629C810.617 633.967 811.608 633.044 812.301 631.86C812.994 630.656 813.341 629.271 813.341 627.706C813.341 626.141 812.994 624.766 812.301 623.582C811.608 622.378 810.617 621.445 809.329 620.783C808.061 620.12 806.585 619.789 804.901 619.789H799.285V635.623H804.901Z" fill="white"/>
<path d="M860.032 635.623V638.242H844.936V617.17H859.616V619.789H847.907V626.261H858.338V628.82H847.907V635.623H860.032Z" fill="white"/>
<path d="M908.202 638.242L908.172 622.89L900.653 635.683H899.286L891.768 622.98V638.242H888.915V617.17H891.352L900.029 631.98L908.588 617.17H911.025L911.055 638.242H908.202Z" fill="white"/>
<path d="M949.333 630.957V638.242H946.391V630.897L938.129 617.17H941.309L947.966 628.278L954.652 617.17H957.594L949.333 630.957Z" fill="white"/>
</svg>
