<svg width="1080" height="1080" viewBox="0 0 1080 520" fill="none" xmlns="http://www.w3.org/2000/svg">
<rect width="1080" height="1080" fill="#343090"/>
    <path d="M338.305 724.721C359.103 714.651 372.018 697.364 372.018 672.356V671.852C372.018 654.229 366.65 641.474 356.419 631.236C344.51 619.151 325.054 611.599 294.696 611.599H211V766.848H268.195V734.12H280.439L334.615 816.864H400.028L338.305 724.721ZM314.991 676.552C314.991 687.126 306.604 693.168 293.018 693.168H268.195V659.6H293.186C306.437 659.6 314.991 664.971 314.991 676.048V676.552Z" fill="white" />
    <path d="M777.077 607.906C736.823 607.906 703.613 630.9 690.027 663.628C688.518 650.201 683.486 639.795 674.764 631.236C662.688 619.151 643.399 611.599 613.041 611.599H529.345V749.393L471.311 610.424H414.452L361.115 737.98L380.404 766.848H586.54V734.12H598.784L620.42 766.848H685.331L656.482 724.721C668.223 719.015 677.28 711.126 683.15 700.888C683.989 727.742 696.736 751.239 716.696 766.848H835.782C856.915 750.568 869.998 725.56 869.998 697.364V696.86C870.333 647.18 829.911 607.906 777.077 607.906ZM424.851 724.553L442.462 677.894L459.906 724.553H424.851ZM633.336 676.552C633.336 687.125 624.949 693.168 611.363 693.168H586.707V659.6H611.699C624.949 659.6 633.503 664.971 633.503 676.048V676.552H633.336ZM812.635 697.867C812.635 718.008 798.882 736.134 777.077 736.134C755.105 736.134 741.016 717.84 741.016 697.364V696.86C741.016 676.72 754.77 658.593 776.574 658.593C798.546 658.593 812.635 676.887 812.635 697.364V697.867Z" fill="white" />
    <path d="M541.392 462.63C541.392 462.63 607.802 431.763 650.29 411.943C650.29 411.943 653.227 410.027 656.341 411.876C659.456 413.725 659.206 416.844 659.206 416.844V496.563C659.206 498.013 658.624 499.463 657.461 500.623C642.334 515.994 624.88 528.176 605.39 536.586C585.318 545.577 563.791 549.927 541.683 549.927C519.574 549.927 498.048 545.287 477.976 536.586C471.576 533.686 465.176 530.496 459.067 526.725C456.158 525.275 455.285 521.505 457.031 518.895C458.485 515.995 462.267 515.124 464.885 516.865C470.412 520.055 476.23 523.245 482.339 525.855C500.957 533.976 521.029 538.036 541.392 538.036C561.755 538.036 581.827 533.976 600.735 525.855C617.898 518.315 633.607 507.584 647.279 493.953V425.797L544.01 474.231C543.137 474.521 542.264 474.811 541.392 474.811C540.519 474.811 539.646 474.521 538.774 474.231L459.358 437.108C456.449 435.658 454.995 432.178 456.449 429.277C457.904 426.377 461.394 424.927 464.303 426.377L541.392 462.63Z" fill="white" />
    <path d="M754.07 363.969L543.571 264.653C542.12 263.782 540.087 263.782 538.636 264.653L327.846 363.969C325.814 364.84 324.652 366.873 324.652 369.196C324.652 371.519 325.814 373.552 327.846 374.423L399.271 408.109C402.174 409.561 405.658 408.109 407.11 405.205C408.562 402.301 407.11 398.817 404.207 397.365L343.815 368.906L540.958 276.56L737.811 369.196L675.097 398.817C672.194 400.269 671.032 403.753 672.194 406.657C673.065 408.69 675.387 409.852 677.42 409.852C678.291 409.852 679.162 409.561 680.033 409.271L754.07 374.423C756.103 373.552 757.264 371.519 757.264 369.196C757.264 366.873 756.103 364.84 754.07 363.969Z" fill="white" />
    <path d="M546.102 359.658C547.553 362.561 546.392 366.044 543.489 367.495L435.767 420.324V573.004C435.767 576.197 433.154 578.809 429.96 578.809C426.767 578.809 424.153 576.197 424.153 573.004V414.527C424.153 414.527 424.15 413.547 425.04 412.923C425.93 412.299 426.197 412.21 426.197 412.21L538.262 357.046C541.166 355.595 544.65 356.756 546.102 359.658Z" fill="white" />
</svg>